<?xml version="1.0" encoding="UTF-8" standalone="no"?>
<!DOCTYPE svg PUBLIC "-//W3C//DTD SVG 1.1//EN" "http://www.w3.org/Graphics/SVG/1.1/DTD/svg11.dtd">
<svg width="100%" height="100%" viewBox="0 0 791 745" version="1.1" xmlns="http://www.w3.org/2000/svg" xmlns:xlink="http://www.w3.org/1999/xlink" xml:space="preserve" xmlns:serif="http://www.serif.com/" style="fill-rule:evenodd;clip-rule:evenodd;stroke-linecap:round;stroke-linejoin:round;stroke-miterlimit:1.5;">
    <g transform="matrix(0.24,0,0,0.24,-1003.66,-743.003)">
        <g transform="matrix(-1,1.22465e-16,-1.22465e-16,-1,11658,9213)">
            <path d="M5829,3056C5829,3056 7234.04,3659.89 7395.39,4127.37C7556.74,4594.85 7219.49,5571.96 6797.08,5860.88C6374.67,6149.8 5283.33,6149.8 4860.92,5860.88C4438.51,5571.96 4101.26,4594.85 4262.61,4127.37C4423.96,3659.89 5829,3056 5829,3056Z" style="fill:rgb(255,44,14);stroke:rgb(255,255,175);stroke-width:79.17px;"/>
        </g>
        <g transform="matrix(2923.65,0,0,2936.69,4367.86,5378.03)">
            <path d="M0.925,-0.461C0.925,-0.442 0.921,-0.384 0.913,-0.29L0.901,-0.29C0.901,-0.29 0.908,-0.042 0.901,0.008C0.899,0.022 0.861,0.022 0.859,0.008C0.852,-0.042 0.859,-0.29 0.859,-0.29L0.853,-0.29L0.853,-0.609C0.867,-0.607 0.878,-0.601 0.888,-0.59C0.912,-0.566 0.924,-0.523 0.925,-0.461ZM0.817,-0.301C0.817,-0.218 0.788,-0.147 0.729,-0.088C0.67,-0.029 0.599,-0 0.516,-0C0.433,-0 0.362,-0.029 0.303,-0.088C0.244,-0.147 0.214,-0.218 0.214,-0.301C0.214,-0.384 0.244,-0.455 0.303,-0.514C0.362,-0.573 0.433,-0.603 0.516,-0.603C0.599,-0.603 0.67,-0.573 0.729,-0.514C0.788,-0.455 0.817,-0.384 0.817,-0.301ZM0.218,-0.449C0.218,-0.428 0.209,-0.411 0.192,-0.398C0.175,-0.385 0.167,-0.374 0.167,-0.364C0.167,-0.364 0.174,-0.054 0.167,0.008C0.165,0.022 0.127,0.022 0.125,0.008C0.119,-0.054 0.125,-0.364 0.125,-0.364C0.125,-0.374 0.117,-0.385 0.1,-0.398C0.083,-0.411 0.075,-0.428 0.075,-0.449C0.075,-0.504 0.106,-0.606 0.112,-0.609C0.118,-0.613 0.112,-0.472 0.112,-0.472L0.134,-0.472C0.134,-0.472 0.132,-0.585 0.134,-0.609C0.134,-0.614 0.142,-0.618 0.146,-0.618C0.15,-0.618 0.158,-0.614 0.158,-0.609C0.16,-0.585 0.158,-0.472 0.158,-0.472L0.181,-0.472C0.181,-0.472 0.174,-0.613 0.181,-0.609C0.187,-0.606 0.218,-0.504 0.218,-0.449ZM0.735,-0.301C0.735,-0.362 0.714,-0.413 0.671,-0.456C0.628,-0.499 0.576,-0.521 0.516,-0.521C0.455,-0.521 0.403,-0.499 0.361,-0.456C0.318,-0.413 0.296,-0.362 0.296,-0.301C0.296,-0.241 0.318,-0.189 0.361,-0.146C0.403,-0.103 0.455,-0.082 0.516,-0.082C0.576,-0.082 0.628,-0.103 0.671,-0.146C0.714,-0.189 0.735,-0.241 0.735,-0.301ZM0.713,-0.301C0.713,-0.247 0.694,-0.2 0.656,-0.161C0.617,-0.123 0.57,-0.104 0.516,-0.104C0.461,-0.104 0.415,-0.123 0.376,-0.161C0.338,-0.2 0.318,-0.247 0.318,-0.301C0.318,-0.356 0.338,-0.402 0.376,-0.441C0.415,-0.479 0.461,-0.499 0.516,-0.499C0.57,-0.499 0.617,-0.479 0.656,-0.441C0.694,-0.402 0.713,-0.356 0.713,-0.301Z" style="fill:rgb(255,255,175);fill-rule:nonzero;"/>
        </g>
    </g>
</svg>
