<?xml version="1.0" encoding="UTF-8" standalone="no"?><!DOCTYPE svg PUBLIC "-//W3C//DTD SVG 1.1//EN" "http://www.w3.org/Graphics/SVG/1.1/DTD/svg11.dtd"><svg width="100%" height="100%" viewBox="0 0 3371 2384" version="1.1" xmlns="http://www.w3.org/2000/svg" xmlns:xlink="http://www.w3.org/1999/xlink" xml:space="preserve" xmlns:serif="http://www.serif.com/" style="fill-rule:evenodd;clip-rule:evenodd;stroke-linejoin:round;stroke-miterlimit:2;"><g><path d="M1812.84,1342.83c-84.341,84.341 -218.779,86.851 -300.028,5.602c-81.249,-81.25 -78.739,-215.687 5.601,-300.028c84.341,-84.34 218.779,-86.85 300.028,-5.601c81.249,81.249 78.739,215.687 -5.601,300.027Z" style="fill:#222;"/><path d="M1059.29,1356.9c-84.34,84.341 -218.778,86.851 -300.027,5.601c-81.25,-81.249 -78.74,-215.687 5.601,-300.027c84.34,-84.341 218.778,-86.85 300.027,-5.601c81.249,81.249 78.74,215.687 -5.601,300.027Z" style="fill:#222;"/><path d="M2566.19,1328.77c-84.341,84.341 -218.779,86.851 -300.028,5.601c-81.249,-81.249 -78.739,-215.687 5.601,-300.027c84.341,-84.341 218.779,-86.85 300.028,-5.601c81.249,81.249 78.739,215.687 -5.601,300.027Z" style="fill:#222;"/><path d="M1826.9,589.628c-84.34,84.341 -218.778,86.85 -300.027,5.601c-81.25,-81.249 -78.74,-215.687 5.601,-300.027c84.34,-84.341 218.778,-86.851 300.027,-5.601c81.249,81.249 78.74,215.687 -5.601,300.027Z" style="fill:#222;"/><path d="M1798.66,2102.16c-84.341,84.34 -218.778,86.85 -300.028,5.601c-81.249,-81.249 -78.739,-215.687 5.602,-300.027c84.34,-84.341 218.778,-86.851 300.027,-5.602c81.249,81.25 78.739,215.687 -5.601,300.028Z" style="fill:#222;"/></g></svg>