<?xml version="1.0" encoding="UTF-8" standalone="no"?>
<!DOCTYPE svg PUBLIC "-//W3C//DTD SVG 1.1//EN" "http://www.w3.org/Graphics/SVG/1.1/DTD/svg11.dtd">
<svg width="100%" height="100%" viewBox="0 0 3295 3101" version="1.1" xmlns="http://www.w3.org/2000/svg" xmlns:xlink="http://www.w3.org/1999/xlink" xml:space="preserve" xmlns:serif="http://www.serif.com/" style="fill-rule:evenodd;clip-rule:evenodd;stroke-linecap:round;stroke-linejoin:round;stroke-miterlimit:1.5;">
    <g transform="matrix(1,0,0,1,-4181.91,-3095.85)">
        <g transform="matrix(-1,1.22465e-16,-1.22465e-16,-1,11658,9213)">
            <path d="M5829,3056C5829,3056 7234.04,3659.89 7395.39,4127.37C7556.74,4594.85 7219.49,5571.96 6797.08,5860.88C6374.67,6149.8 5283.33,6149.8 4860.92,5860.88C4438.51,5571.96 4101.26,4594.85 4262.61,4127.37C4423.96,3659.89 5829,3056 5829,3056Z" style="fill:rgb(236,183,0);stroke:rgb(255,255,175);stroke-width:79.17px;"/>
        </g>
        <g transform="matrix(1,0,0,1,231,-408)">
            <path d="M4894,5941L5735,5946" style="fill:none;stroke:rgb(255,255,175);stroke-width:79.17px;"/>
        </g>
        <g transform="matrix(3248.3,0,0,3587.78,4208.47,5877.7)">
            <path d="M0.849,-0.439C0.829,-0.466 0.702,-0.554 0.702,-0.554L0.702,-0.718L0.63,-0.718L0.63,-0.609L0.5,-0.711C0.5,-0.711 0.203,-0.492 0.15,-0.439C0.137,-0.426 0.169,-0.395 0.182,-0.394C0.194,-0.392 0.224,-0.429 0.224,-0.429C0.224,-0.429 0.206,-0.152 0.224,-0.097C0.234,-0.063 0.33,-0.097 0.33,-0.097L0.33,-0.368L0.462,-0.368L0.462,-0.097C0.462,-0.097 0.723,-0.042 0.775,-0.097C0.827,-0.152 0.775,-0.429 0.775,-0.429C0.775,-0.429 0.805,-0.392 0.817,-0.394C0.829,-0.395 0.859,-0.424 0.849,-0.439ZM0.713,-0.206L0.54,-0.206L0.54,-0.368L0.713,-0.368L0.713,-0.206Z" style="fill:rgb(255,255,175);fill-rule:nonzero;"/>
        </g>
    </g>
</svg>
