<?xml version="1.0" encoding="UTF-8" standalone="no"?>
<!DOCTYPE svg PUBLIC "-//W3C//DTD SVG 1.1//EN" "http://www.w3.org/Graphics/SVG/1.1/DTD/svg11.dtd">
<svg width="100%" height="100%" viewBox="0 0 791 745" version="1.1" xmlns="http://www.w3.org/2000/svg" xmlns:xlink="http://www.w3.org/1999/xlink" xml:space="preserve" xmlns:serif="http://www.serif.com/" style="fill-rule:evenodd;clip-rule:evenodd;stroke-linecap:round;stroke-linejoin:round;stroke-miterlimit:1.5;">
    <g transform="matrix(0.24,0,0,0.24,-1003.66,-743.003)">
        <g transform="matrix(-1,1.22465e-16,-1.22465e-16,-1,11658,9213)">
            <path d="M5829,3056C5829,3056 7234.04,3659.89 7395.39,4127.37C7556.74,4594.85 7219.49,5571.96 6797.08,5860.88C6374.67,6149.8 5283.33,6149.8 4860.92,5860.88C4438.51,5571.96 4101.26,4594.85 4262.61,4127.37C4423.96,3659.89 5829,3056 5829,3056Z" style="fill:rgb(0,207,224);stroke:rgb(255,255,175);stroke-width:79.17px;"/>
        </g>
        <g transform="matrix(2506.23,0,0,3135.3,4618.39,5259.9)">
            <path d="M0.784,-0.527C0.831,-0.543 0.595,-0.621 0.5,-0.621C0.405,-0.621 0.169,-0.543 0.216,-0.527C0.264,-0.512 0.736,-0.512 0.784,-0.527ZM0.795,-0.064C0.803,-0.126 0.795,-0.373 0.788,-0.435C0.787,-0.446 0.754,-0.446 0.752,-0.435C0.745,-0.373 0.738,-0.126 0.745,-0.064C0.747,-0.048 0.793,-0.048 0.795,-0.064ZM0.802,-0.448C0.816,-0.449 0.816,-0.487 0.802,-0.488C0.701,-0.494 0.299,-0.494 0.198,-0.488C0.184,-0.487 0.184,-0.449 0.198,-0.448C0.299,-0.441 0.701,-0.441 0.802,-0.448ZM0.615,-0.064C0.622,-0.126 0.615,-0.373 0.608,-0.435C0.607,-0.446 0.574,-0.446 0.572,-0.435C0.565,-0.373 0.558,-0.126 0.565,-0.064C0.567,-0.048 0.613,-0.048 0.615,-0.064ZM0.435,-0.064C0.442,-0.126 0.435,-0.373 0.428,-0.435C0.426,-0.446 0.393,-0.446 0.392,-0.435C0.385,-0.373 0.378,-0.126 0.385,-0.064C0.387,-0.048 0.433,-0.048 0.435,-0.064ZM0.927,0.037L0.927,0.007L0.895,0.007L0.895,-0.022L0.862,-0.022L0.862,-0.051L0.138,-0.051L0.138,-0.022L0.105,-0.022L0.105,0.007L0.073,0.007L0.073,0.037L0.927,0.037ZM0.255,-0.064C0.262,-0.126 0.255,-0.373 0.248,-0.435C0.246,-0.446 0.213,-0.446 0.212,-0.435C0.205,-0.373 0.197,-0.126 0.205,-0.064C0.207,-0.048 0.253,-0.048 0.255,-0.064Z" style="fill:rgb(255,255,175);fill-rule:nonzero;"/>
        </g>
    </g>
</svg>
