<?xml version="1.0" encoding="UTF-8" standalone="no"?>
<!DOCTYPE svg PUBLIC "-//W3C//DTD SVG 1.1//EN" "http://www.w3.org/Graphics/SVG/1.1/DTD/svg11.dtd">
<svg width="100%" height="100%" viewBox="0 0 791 745" version="1.1" xmlns="http://www.w3.org/2000/svg" xmlns:xlink="http://www.w3.org/1999/xlink" xml:space="preserve" xmlns:serif="http://www.serif.com/" style="fill-rule:evenodd;clip-rule:evenodd;stroke-linecap:round;stroke-linejoin:round;stroke-miterlimit:1.5;">
    <g transform="matrix(0.24,0,0,0.24,-1003.66,-743.003)">
        <g transform="matrix(-1,1.22465e-16,-1.22465e-16,-1,11658,9213)">
            <path d="M5829,3056C5829,3056 7234.04,3659.89 7395.39,4127.37C7556.74,4594.85 7219.49,5571.96 6797.08,5860.88C6374.67,6149.8 5283.33,6149.8 4860.92,5860.88C4438.51,5571.96 4101.26,4594.85 4262.61,4127.37C4423.96,3659.89 5829,3056 5829,3056Z" style="fill:rgb(28,173,0);stroke:rgb(255,255,175);stroke-width:79.17px;"/>
        </g>
        <g transform="matrix(3265.04,0,0,2881.81,4254.17,5388.32)">
            <path d="M0.593,-0.658C0.593,-0.64 0.559,-0.615 0.491,-0.583C0.491,-0.602 0.496,-0.622 0.507,-0.646C0.52,-0.673 0.534,-0.687 0.55,-0.687C0.558,-0.687 0.567,-0.684 0.577,-0.678C0.588,-0.672 0.593,-0.665 0.593,-0.658ZM0.781,-0.549L0.565,-0.549C0.588,-0.555 0.61,-0.566 0.63,-0.583C0.635,-0.587 0.647,-0.6 0.665,-0.62C0.682,-0.641 0.693,-0.654 0.697,-0.659L0.666,-0.671C0.646,-0.625 0.629,-0.597 0.615,-0.587C0.579,-0.56 0.539,-0.548 0.496,-0.549L0.496,-0.549C0.516,-0.555 0.541,-0.568 0.57,-0.589C0.603,-0.613 0.62,-0.634 0.62,-0.65C0.62,-0.667 0.612,-0.68 0.598,-0.69C0.585,-0.699 0.57,-0.704 0.553,-0.704C0.529,-0.704 0.511,-0.692 0.497,-0.667C0.486,-0.648 0.479,-0.625 0.478,-0.599C0.472,-0.624 0.462,-0.646 0.448,-0.664C0.431,-0.688 0.412,-0.7 0.39,-0.7C0.356,-0.7 0.339,-0.686 0.339,-0.658C0.339,-0.642 0.358,-0.623 0.396,-0.6C0.423,-0.584 0.449,-0.568 0.475,-0.553C0.439,-0.563 0.388,-0.579 0.319,-0.601C0.296,-0.61 0.277,-0.628 0.26,-0.657L0.236,-0.621C0.268,-0.597 0.306,-0.58 0.352,-0.57C0.393,-0.563 0.435,-0.556 0.476,-0.549L0.2,-0.549L0.236,-0.579L0.275,-0.579C0.262,-0.587 0.242,-0.599 0.216,-0.615L0.252,-0.683C0.268,-0.665 0.283,-0.648 0.298,-0.631C0.316,-0.614 0.336,-0.604 0.359,-0.6C0.336,-0.615 0.325,-0.635 0.325,-0.658C0.325,-0.676 0.331,-0.69 0.345,-0.7C0.356,-0.71 0.372,-0.714 0.39,-0.714C0.428,-0.714 0.457,-0.686 0.475,-0.63C0.488,-0.689 0.514,-0.718 0.553,-0.718C0.575,-0.718 0.593,-0.712 0.609,-0.701C0.626,-0.688 0.634,-0.671 0.634,-0.65C0.634,-0.624 0.61,-0.599 0.563,-0.577C0.591,-0.58 0.612,-0.593 0.626,-0.616C0.628,-0.619 0.637,-0.643 0.655,-0.689L0.715,-0.663L0.64,-0.578L0.744,-0.578L0.781,-0.549ZM0.464,-0.583C0.447,-0.591 0.429,-0.603 0.41,-0.619C0.387,-0.638 0.375,-0.654 0.375,-0.668C0.375,-0.681 0.383,-0.688 0.398,-0.688C0.414,-0.688 0.429,-0.674 0.442,-0.647C0.452,-0.628 0.459,-0.607 0.464,-0.583ZM0.513,-0.295L0.513,-0.502C0.509,-0.511 0.506,-0.521 0.502,-0.531L0.803,-0.531L0.828,-0.51C0.828,-0.51 0.841,-0.409 0.847,-0.295M0.115,-0.252C0.116,-0.266 0.117,-0.281 0.118,-0.295" style="fill:rgb(255,255,175);fill-rule:nonzero;"/>
        </g>
        <g transform="matrix(3265.04,0,0,2881.81,4254.17,5388.32)">
            <path d="M0.847,-0.295C0.848,-0.28 0.849,-0.266 0.85,-0.252" style="fill:rgb(250,42,0);fill-rule:nonzero;"/>
        </g>
        <g transform="matrix(3265.04,0,0,2881.81,4254.17,5388.32)">
            <path d="M0.85,-0.252C0.854,-0.145 0.852,-0.038 0.828,-0C0.776,0.085 0.513,-0 0.513,-0L0.513,-0.252" style="fill:rgb(255,255,175);fill-rule:nonzero;"/>
        </g>
        <g transform="matrix(3265.04,0,0,2881.81,4254.17,5388.32)">
            <path d="M0.118,-0.295C0.125,-0.405 0.139,-0.502 0.139,-0.502L0.176,-0.531L0.479,-0.531L0.483,-0.507L0.483,-0.295" style="fill:rgb(255,255,175);fill-rule:nonzero;"/>
        </g>
        <g transform="matrix(3265.04,0,0,2881.81,4254.17,5388.32)">
            <path d="M0.483,-0.252L0.483,-0C0.483,-0 0.196,0.084 0.139,-0C0.113,-0.038 0.11,-0.146 0.115,-0.252" style="fill:rgb(255,255,175);fill-rule:nonzero;"/>
        </g>
    </g>
</svg>
