<?xml version="1.0" encoding="UTF-8" standalone="no"?>
<!DOCTYPE svg PUBLIC "-//W3C//DTD SVG 1.1//EN" "http://www.w3.org/Graphics/SVG/1.1/DTD/svg11.dtd">
<svg width="100%" height="100%" viewBox="0 0 1182 352" version="1.1" xmlns="http://www.w3.org/2000/svg" xmlns:xlink="http://www.w3.org/1999/xlink" xml:space="preserve" xmlns:serif="http://www.serif.com/" style="fill-rule:evenodd;clip-rule:evenodd;stroke-linecap:round;stroke-linejoin:round;stroke-miterlimit:1.5;">
    <g transform="matrix(0.24,0,0,0.24,-1663.38,-1025.05)">
        <g transform="matrix(-0.316885,0.0581673,-0.0756665,-0.367536,11463,6507.84)">
            <path d="M5829,3056C5829,3056 7234.04,3659.89 7395.39,4127.37C7556.74,4594.85 7219.49,5571.96 6797.08,5860.88C6374.67,6149.8 5283.33,6149.8 4860.92,5860.88C4438.51,5571.96 4101.26,4594.85 4262.61,4127.37C4423.96,3659.89 5829,3056 5829,3056Z" style="fill:rgb(255,44,14);stroke:rgb(255,255,175);stroke-width:79.17px;"/>
        </g>
        <g transform="matrix(0.622446,0,0,0.577798,5855.81,2096.52)">
            <path d="M2826.09,4963.48C2849.64,4902.65 2874.49,4834.78 2900.66,4759.89C2926.82,4684.99 2950.86,4609.12 2972.77,4532.26C2994.69,4455.4 3012.84,4380.67 3027.23,4308.06C3041.62,4235.46 3048.81,4170.7 3048.81,4113.79C3048.81,4070.62 3045.87,4034.65 3039.98,4005.87C3034.1,3977.09 3027.39,3953.05 3019.87,3933.75C3012.35,3914.45 3005.64,3898.59 2999.76,3886.16C2993.87,3873.74 2990.93,3862.29 2990.93,3851.82C2990.93,3838.09 2994.69,3826.48 3002.21,3816.99C3009.73,3807.51 3019.05,3799.49 3030.17,3792.95C3041.29,3786.41 3053.39,3781.67 3066.47,3778.73C3079.56,3775.78 3091.99,3774.31 3103.76,3774.31C3129.92,3774.31 3152,3778.24 3169.99,3786.09C3187.98,3793.93 3200.57,3807.34 3207.76,3826.31C3211.03,3836.12 3213.65,3846.43 3215.61,3857.22C3217.57,3868.01 3219.05,3878.48 3220.03,3888.62C3221.01,3898.76 3221.5,3908.24 3221.5,3917.07L3221.5,3938.16C3221.5,3965.64 3216.92,4003.25 3207.76,4051C3198.61,4098.75 3186.34,4152.71 3170.97,4212.89C3155.6,4273.07 3137.77,4337.5 3117.5,4406.18C3097.22,4474.86 3076.29,4544.03 3054.7,4613.7C3033.12,4683.36 3011.2,4751.55 2988.96,4818.27C2966.72,4884.99 2945.79,4946.64 2926.17,5003.22C2906.55,5059.8 2889.05,5109.35 2873.68,5151.86C2858.3,5194.38 2846.37,5226.11 2837.86,5247.04C2831.98,5262.08 2824.62,5274.18 2815.79,5283.34C2806.96,5292.5 2796.98,5299.53 2785.86,5304.43C2774.74,5309.34 2762.48,5312.61 2749.07,5314.25C2735.66,5315.88 2721.76,5316.7 2707.37,5316.7C2681.2,5316.7 2659.95,5314.08 2643.59,5308.85C2627.24,5303.62 2614,5297.07 2603.86,5289.23C2593.72,5281.38 2586.36,5272.87 2581.78,5263.72C2577.2,5254.56 2573.61,5246.38 2570.99,5239.19L2199.13,4071.6C2191.93,4049.36 2184.57,4030.56 2177.05,4015.19C2169.53,3999.82 2160.37,3987.22 2149.58,3977.41C2138.79,3967.6 2125.87,3960.41 2110.82,3955.83C2095.78,3951.25 2077.14,3948.96 2054.9,3948.96C2036.58,3948.96 2015.32,3953.37 1991.12,3962.2C1966.92,3971.03 1943.86,3984.12 1921.95,4001.45C1900.04,4018.78 1881.56,4040.37 1866.51,4066.21C1851.47,4092.04 1843.95,4121.97 1843.95,4155.98C1843.95,4176.91 1846.73,4193.6 1852.29,4206.02C1857.85,4218.45 1864.22,4227.77 1871.42,4233.99C1878.61,4240.2 1885.97,4244.12 1893.5,4245.76C1901.02,4247.4 1906.41,4248.21 1909.68,4248.21C1926.04,4248.21 1939.45,4245.43 1949.91,4239.87C1960.38,4234.31 1969.86,4228.43 1978.37,4222.21C1986.87,4216 1994.88,4210.11 2002.4,4204.55C2009.93,4198.99 2018.59,4196.21 2028.4,4196.21C2036.26,4196.21 2044.59,4198.01 2053.43,4201.61C2062.26,4205.2 2070.43,4210.93 2077.95,4218.78C2085.48,4226.63 2091.85,4236.93 2097.09,4249.68C2102.32,4262.44 2104.94,4277.98 2104.94,4296.29C2104.94,4322.45 2099.87,4345.02 2089.73,4363.99C2079.59,4382.96 2066.51,4398.82 2050.48,4411.58C2034.46,4424.33 2016.14,4433.82 1995.54,4440.03C1974.93,4446.24 1954.49,4449.35 1934.21,4449.35C1902.82,4449.35 1874.85,4443.79 1850.32,4432.67C1825.8,4421.55 1805.19,4406.51 1788.51,4387.54C1771.83,4368.57 1759.08,4346.49 1750.25,4321.31C1741.41,4296.13 1737,4269.14 1737,4240.36C1737,4172.34 1750.08,4112.98 1776.25,4062.28C1802.41,4011.59 1837.08,3969.24 1880.25,3935.22C1923.42,3901.21 1972.48,3875.86 2027.42,3859.18C2082.37,3842.5 2138.95,3834.16 2197.16,3834.16C2262.58,3834.16 2316.21,3844.14 2358.08,3864.09C2399.94,3884.04 2433.79,3909.71 2459.63,3941.11C2485.46,3972.51 2505.9,4007.66 2520.95,4046.58C2535.99,4085.5 2549.4,4123.93 2561.18,4161.87L2826.09,4963.48Z" style="fill:rgb(28,173,0);fill-rule:nonzero;stroke:rgb(255,255,175);stroke-width:20.81px;stroke-linecap:butt;stroke-miterlimit:2;"/>
            <path d="M3755.77,4792.76C3755.77,4776.4 3750.53,4763.98 3740.07,4755.47C3729.6,4746.97 3716.19,4742.72 3699.84,4742.72C3676.95,4742.72 3655.2,4747.95 3634.59,4758.42C3613.99,4768.88 3595.84,4784.25 3580.14,4804.53C3564.44,4824.81 3552.01,4849.83 3542.85,4879.59C3533.7,4909.35 3529.12,4943.86 3529.12,4983.1C3529.12,5021.04 3531.9,5052.44 3537.46,5077.3C3543.02,5102.15 3550.54,5121.94 3560.02,5136.65C3569.51,5151.37 3580.47,5161.68 3592.89,5167.56C3605.32,5173.45 3618.4,5176.39 3632.14,5176.39C3649.15,5176.39 3665.17,5171.98 3680.22,5163.15C3695.26,5154.32 3708.34,5143.03 3719.46,5129.3C3730.58,5115.56 3739.41,5100.19 3745.95,5083.18C3752.5,5066.18 3755.77,5049.17 3755.77,5032.16L3755.77,4792.76ZM3599.76,4363.01C3577.52,4363.01 3556.92,4365.62 3537.95,4370.86C3518.98,4376.09 3502.63,4382.63 3488.89,4390.48C3475.15,4398.33 3464.36,4407 3456.51,4416.48C3448.66,4425.97 3444.74,4434.96 3444.74,4443.46C3444.74,4453.28 3449.81,4460.31 3459.95,4464.56C3470.08,4468.81 3481.37,4473.72 3493.8,4479.28C3506.22,4484.84 3517.51,4492.69 3527.65,4502.82C3537.78,4512.96 3542.85,4528.5 3542.85,4549.43C3542.85,4563.17 3540.07,4575.76 3534.51,4587.2C3528.95,4598.65 3521.43,4608.79 3511.95,4617.62C3502.46,4626.45 3491.34,4633.32 3478.59,4638.23C3465.83,4643.13 3452.59,4645.58 3438.85,4645.58C3402.22,4645.58 3372.62,4633.15 3350.06,4608.3C3327.49,4583.44 3316.2,4550.41 3316.2,4509.2C3316.2,4469.3 3326.67,4435.12 3347.6,4406.67C3368.53,4378.22 3395.84,4354.83 3429.53,4336.52C3463.22,4318.2 3501.32,4304.63 3543.84,4295.8C3586.35,4286.97 3628.87,4282.55 3671.39,4282.55C3722.41,4282.55 3771.14,4288.11 3817.58,4299.23C3864.02,4310.35 3905.07,4328.01 3940.72,4352.22C3976.36,4376.42 4004.82,4407.16 4026.08,4444.44C4047.34,4481.73 4057.96,4526.86 4057.96,4579.85L4057.96,5134.2C4057.96,5140.09 4058.29,5146.63 4058.95,5153.83C4059.6,5161.02 4061.24,5167.56 4063.85,5173.45C4066.47,5179.34 4070.39,5184.24 4075.62,5188.17C4080.86,5192.09 4088.38,5194.05 4098.19,5194.05C4109.97,5194.05 4120.92,5189.64 4131.06,5180.81C4141.2,5171.98 4150.19,5162.98 4158.04,5153.83L4182.57,5174.43C4172.76,5188.17 4160.99,5203.21 4147.25,5219.56C4133.51,5235.92 4116.83,5251.29 4097.21,5265.68C4077.59,5280.07 4054.69,5292.17 4028.53,5301.98C4002.37,5311.79 3972.6,5316.7 3939.24,5316.7C3898.03,5316.7 3861.41,5304.43 3829.35,5279.9C3797.3,5255.38 3776.37,5217.6 3766.56,5166.58C3745.63,5194.71 3723.88,5218.26 3701.31,5237.22C3678.74,5256.19 3655.69,5271.57 3632.14,5283.34C3608.59,5295.11 3584.88,5303.62 3561.01,5308.85C3537.13,5314.08 3513.09,5316.7 3488.89,5316.7C3457.49,5316.7 3427.08,5311.79 3397.64,5301.98C3368.21,5292.17 3341.88,5276.63 3318.66,5255.38C3295.44,5234.12 3276.8,5206.48 3262.73,5172.47C3248.67,5138.45 3241.64,5096.92 3241.64,5047.86C3241.64,4988.34 3253.41,4939.61 3276.96,4901.67C3300.51,4863.73 3331.41,4831.84 3369.68,4806C3407.94,4780.17 3451.44,4758.09 3500.17,4739.78C3548.9,4721.46 3598.78,4702.16 3649.8,4681.89C3687.74,4666.84 3715.38,4644.44 3732.71,4614.68C3750.04,4584.91 3758.71,4554.34 3758.71,4522.94C3758.71,4474.53 3744.48,4435.78 3716.03,4406.67C3687.58,4377.56 3648.82,4363.01 3599.76,4363.01Z" style="fill:rgb(28,173,0);fill-rule:nonzero;stroke:rgb(255,255,175);stroke-width:20.81px;stroke-linecap:butt;stroke-miterlimit:2;"/>
            <path d="M4859.57,4768.23L4859.57,4724.57C4859.57,4702.65 4858.92,4677.47 4857.61,4649.02C4856.3,4620.56 4854.01,4590.31 4850.74,4558.26C4847.47,4526.21 4842.24,4496.45 4835.05,4468.97C4819.35,4448.7 4801.85,4430.55 4782.55,4414.52C4763.26,4398.49 4738.56,4390.48 4708.48,4390.48C4657.45,4390.48 4620.01,4423.84 4596.13,4490.56C4572.26,4557.28 4560.32,4660.63 4560.32,4800.61C4560.32,4862.09 4563.1,4918.35 4568.66,4969.37C4574.22,5020.39 4582.72,5064.21 4594.17,5100.84C4605.62,5137.47 4620.33,5165.93 4638.32,5186.2C4656.31,5206.48 4677.73,5216.62 4702.59,5216.62C4807.24,5216.62 4859.57,5067.16 4859.57,4768.23ZM4847.8,4336.52C4835.37,4271.11 4818.04,4210.11 4795.8,4153.53C4773.56,4096.95 4746.9,4048.06 4715.83,4006.85C4684.76,3965.64 4649.44,3933.26 4609.87,3909.71C4570.29,3886.16 4527.61,3874.39 4481.83,3874.39C4455.66,3874.39 4431.95,3877.66 4410.69,3884.2C4389.43,3890.74 4370.95,3898.43 4355.26,3907.26C4339.56,3916.09 4326.64,3924.59 4316.5,3932.77C4306.36,3940.95 4299,3947 4294.42,3950.92L4268.91,3916.58C4284.61,3896.3 4303.74,3877.33 4326.31,3859.67C4348.88,3842.01 4373.57,3826.97 4400.39,3814.54C4427.21,3802.11 4455.5,3792.3 4485.26,3785.1C4515.02,3777.91 4544.62,3774.31 4574.06,3774.31C4670.86,3774.31 4755.9,3795.41 4829.16,3837.6C4902.42,3879.79 4963.58,3939.47 5012.64,4016.66C5061.69,4093.84 5098.65,4187.05 5123.51,4296.29C5148.36,4405.53 5160.79,4526.86 5160.79,4660.3C5160.79,4768.23 5149.84,4863.07 5127.92,4944.84C5106.01,5026.6 5074.78,5095.12 5034.22,5150.39C4993.67,5205.66 4944.44,5247.2 4886.56,5275C4828.67,5302.8 4763.42,5316.7 4690.81,5316.7C4640.45,5316.7 4589.26,5307.7 4537.26,5289.72C4485.26,5271.73 4438.16,5242.46 4395.98,5201.9C4353.78,5161.35 4319.28,5108.2 4292.46,5042.46C4265.64,4976.73 4252.23,4896.11 4252.23,4800.61C4252.23,4718.19 4263.85,4644.93 4287.07,4580.83C4310.29,4516.72 4341.52,4462.6 4380.77,4418.44C4420.01,4374.29 4465.47,4340.61 4517.15,4317.39C4568.82,4294.16 4623.44,4282.55 4681,4282.55C4703.24,4282.55 4723.19,4284.35 4740.85,4287.95C4758.51,4291.55 4773.89,4295.96 4786.97,4301.19C4800.05,4306.43 4811.5,4312.15 4821.31,4318.37C4831.12,4324.58 4839.95,4330.63 4847.8,4336.52Z" style="fill:rgb(28,173,0);fill-rule:nonzero;stroke:rgb(255,255,175);stroke-width:20.81px;stroke-linecap:butt;stroke-miterlimit:2;"/>
            <path d="M5663.15,4361.05C5648.1,4361.05 5633.88,4363.01 5620.47,4366.93C5607.06,4370.86 5595.12,4377.23 5584.65,4386.07C5574.19,4394.9 5566.01,4406.02 5560.12,4419.43C5554.24,4432.84 5551.29,4448.7 5551.29,4467.01C5551.29,4492.52 5560.61,4517.87 5579.26,4543.05C5597.9,4568.23 5621.12,4594.4 5648.92,4621.55C5676.72,4648.69 5706.81,4676.82 5739.19,4705.93C5771.57,4735.03 5801.65,4765.78 5829.45,4798.15C5857.25,4830.53 5880.47,4865.04 5899.12,4901.67C5917.76,4938.3 5927.08,4977.54 5927.08,5019.41C5927.08,5066.5 5919.07,5108.36 5903.04,5144.99C5887.02,5181.62 5864.12,5212.69 5834.36,5238.21C5804.6,5263.72 5768.62,5283.18 5726.43,5296.59C5684.24,5309.99 5637.31,5316.7 5585.63,5316.7C5540.5,5316.7 5499.62,5310.32 5462.99,5297.57C5426.36,5284.81 5393.82,5269.11 5365.36,5250.47C5336.91,5231.83 5312.54,5212.04 5292.27,5191.11C5271.99,5170.18 5256.29,5151.21 5245.17,5134.2L5279.51,5109.67C5288.02,5119.48 5298.81,5130.11 5311.89,5141.56C5324.97,5153.01 5339.53,5163.64 5355.55,5173.45C5371.58,5183.26 5388.75,5191.27 5407.06,5197.49C5425.38,5203.7 5444.02,5206.81 5462.99,5206.81C5510.09,5206.81 5548.68,5195.53 5578.77,5172.96C5608.86,5150.39 5623.9,5116.87 5623.9,5072.39C5623.9,5047.53 5615.72,5021.86 5599.37,4995.37C5583.02,4968.88 5562.41,4941.57 5537.56,4913.44C5512.7,4885.31 5485.88,4856.21 5457.1,4826.12C5428.32,4796.03 5401.5,4764.96 5376.65,4732.91C5351.79,4700.86 5331.19,4667.82 5314.83,4633.81C5298.48,4599.8 5290.3,4564.47 5290.3,4527.84C5290.3,4486.64 5298.64,4450.66 5315.32,4419.92C5332,4389.17 5354.24,4363.66 5382.04,4343.39C5409.84,4323.11 5441.57,4307.9 5477.22,4297.76C5512.86,4287.62 5549.66,4282.55 5587.6,4282.55C5631.42,4282.55 5671.32,4286.48 5707.3,4294.33C5743.27,4302.18 5774.18,4314.11 5800.02,4330.14C5825.86,4346.16 5845.81,4366.28 5859.87,4390.48C5873.93,4414.68 5880.96,4442.81 5880.96,4474.86C5880.96,4499.72 5872.79,4521.3 5856.44,4539.62C5840.08,4557.93 5817.19,4567.09 5787.75,4567.09C5759.63,4567.09 5738.2,4561.04 5723.49,4548.94C5708.77,4536.84 5701.41,4520.32 5701.41,4499.39C5701.41,4485.65 5704.85,4474.86 5711.71,4467.01C5718.58,4459.16 5726.27,4452.78 5734.77,4447.88C5743.27,4442.97 5750.96,4438.72 5757.83,4435.12C5764.7,4431.53 5768.13,4426.78 5768.13,4420.9C5768.13,4402.58 5758.32,4388.03 5738.7,4377.23C5719.07,4366.44 5693.89,4361.05 5663.15,4361.05Z" style="fill:rgb(28,173,0);fill-rule:nonzero;stroke:rgb(255,255,175);stroke-width:20.81px;stroke-linecap:butt;stroke-miterlimit:2;"/>
            <path d="M6408.18,4366.93L6408.18,5092.01C6408.18,5126.68 6414.72,5150.72 6427.8,5164.13C6440.89,5177.54 6458.87,5184.24 6481.77,5184.24C6499.43,5184.24 6515.13,5179.34 6528.86,5169.52C6542.6,5159.71 6554.37,5148.59 6564.19,5136.16C6575.96,5122.43 6586.1,5106.4 6594.6,5088.09L6625.02,5101.82C6615.21,5122.76 6603.6,5145.65 6590.19,5170.51C6576.78,5195.36 6558.95,5218.42 6536.71,5239.68C6514.47,5260.94 6486.51,5278.76 6452.82,5293.15C6419.14,5307.54 6376.78,5314.74 6325.76,5314.74C6296.98,5314.74 6269.35,5310.48 6242.86,5301.98C6216.36,5293.48 6192.82,5280.07 6172.21,5261.75C6151.61,5243.44 6135.09,5220.55 6122.66,5193.07C6110.23,5165.6 6104.02,5132.57 6104.02,5093.98L6104.02,4366.93L5994.13,4366.93L5994.13,4296.29C6012.44,4296.29 6037.95,4291.55 6070.66,4282.06C6103.37,4272.58 6136.89,4256.72 6171.23,4234.48C6205.57,4212.24 6237.46,4182.48 6266.89,4145.19C6296.33,4107.91 6317.26,4061.79 6329.69,4006.85L6408.18,4006.85L6408.18,4296.29L6568.11,4296.29C6620.44,4296.29 6646.6,4287.46 6646.6,4269.8C6646.6,4263.26 6643.33,4258.84 6636.79,4256.55C6630.25,4254.26 6622.89,4251.32 6614.72,4247.72C6606.54,4244.12 6599.18,4239.06 6592.64,4232.51C6586.1,4225.97 6582.83,4215.18 6582.83,4200.14C6582.83,4181.82 6588.55,4167.43 6600,4156.96C6611.44,4146.5 6626.33,4141.27 6644.64,4141.27C6656.41,4141.27 6666.72,4143.72 6675.55,4148.62C6684.38,4153.53 6691.74,4160.07 6697.62,4168.25C6703.51,4176.42 6707.93,4185.74 6710.87,4196.21C6713.81,4206.68 6715.28,4217.14 6715.28,4227.61C6715.28,4270.12 6703.02,4303.98 6678.49,4329.16C6653.96,4354.34 6614.55,4366.93 6560.26,4366.93L6408.18,4366.93Z" style="fill:rgb(28,173,0);fill-rule:nonzero;stroke:rgb(255,255,175);stroke-width:20.81px;stroke-linecap:butt;stroke-miterlimit:2;"/>
            <path d="M7001.14,4850.65C7001.14,4871.58 7004.24,4894.31 7010.46,4918.84C7016.67,4943.37 7025.66,4968.06 7037.44,4992.91C7049.21,5017.77 7063.77,5041.48 7081.1,5064.05C7098.43,5086.62 7118.38,5106.73 7140.95,5124.39C7163.52,5142.05 7188.54,5156.11 7216.01,5166.58C7243.48,5177.05 7273.57,5182.28 7306.28,5182.28C7329.17,5182.28 7350.43,5179.66 7370.05,5174.43C7389.68,5169.2 7407.99,5162 7425,5152.84C7442,5143.69 7458.36,5133.06 7474.06,5120.96C7489.75,5108.86 7505.45,5095.94 7521.15,5082.2L7545.68,5105.75C7530.64,5126.03 7511.34,5148.27 7487.79,5172.47C7464.24,5196.67 7435.79,5219.4 7402.43,5240.66C7369.07,5261.92 7330.15,5279.58 7285.67,5293.64C7241.19,5307.7 7190.5,5314.74 7133.59,5314.74C7076.68,5314.74 7021.25,5304.43 6967.28,5283.83C6913.32,5263.23 6865.41,5232.32 6823.54,5191.11C6781.68,5149.9 6748.16,5098.55 6722.98,5037.07C6697.79,4975.58 6685.2,4903.63 6685.2,4821.21C6685.2,4761.69 6692.72,4707.07 6707.77,4657.36C6722.81,4607.65 6743.25,4562.84 6769.09,4522.94C6794.93,4483.04 6825.02,4448.04 6859.36,4417.95C6893.7,4387.86 6929.84,4362.85 6967.78,4342.9C7005.71,4322.94 7044.47,4307.9 7084.04,4297.76C7123.62,4287.62 7161.72,4282.55 7198.35,4282.55C7246.75,4282.55 7288.94,4287.79 7324.92,4298.25C7360.89,4308.72 7390.82,4322.78 7414.69,4340.44C7438.57,4358.1 7456.39,4378.54 7468.17,4401.77C7479.94,4424.98 7485.83,4449.35 7485.83,4474.86C7485.83,4505.6 7477,4533.24 7459.34,4557.77C7441.68,4582.3 7418.13,4603.72 7388.69,4622.04L7001.14,4850.65ZM7198.35,4651.47C7206.85,4646.24 7213.88,4641.17 7219.44,4636.26C7225,4631.36 7229.42,4625.47 7232.69,4618.6C7235.96,4611.73 7238.41,4603.23 7240.05,4593.09C7241.68,4582.95 7242.5,4570.36 7242.5,4555.32C7242.5,4538.96 7240.7,4520.81 7237.1,4500.86C7233.51,4480.91 7227.46,4462.11 7218.95,4444.44C7210.45,4426.78 7199.66,4412.07 7186.57,4400.29C7173.49,4388.52 7157.79,4382.63 7139.48,4382.63C7115.93,4382.63 7095.82,4389.66 7079.14,4403.73C7062.46,4417.79 7048.72,4435.94 7037.93,4458.18C7027.14,4480.42 7018.63,4505.77 7012.42,4534.22C7006.2,4562.68 7001.46,4591.29 6998.19,4620.07C6994.92,4648.85 6992.96,4676.49 6992.3,4702.98C6991.65,4729.47 6991.32,4751.88 6991.32,4770.19L7198.35,4651.47Z" style="fill:rgb(28,173,0);fill-rule:nonzero;stroke:rgb(255,255,175);stroke-width:20.81px;stroke-linecap:butt;stroke-miterlimit:2;"/>
            <path d="M8255.06,4812.38C8255.06,4729.96 8251.3,4664.06 8243.78,4614.68C8236.26,4565.29 8226.28,4527.68 8213.85,4501.84C8201.42,4476.01 8187.69,4459 8172.64,4450.82C8157.6,4442.65 8142.23,4438.56 8126.53,4438.56C8107.56,4438.56 8090.72,4443.63 8076,4453.77C8061.28,4463.9 8048.53,4475.52 8037.73,4488.6C8026.94,4501.68 8017.78,4514.76 8010.26,4527.84C8002.74,4540.93 7996.36,4550.74 7991.13,4557.28L7991.13,5212.69C7991.13,5221.2 7989.82,5231.5 7987.2,5243.6C7984.59,5255.7 7978.21,5267.15 7968.07,5277.94C7957.93,5288.73 7942.89,5297.89 7922.94,5305.41C7902.99,5312.94 7875.68,5316.7 7841.01,5316.7C7806.34,5316.7 7779.03,5312.61 7759.08,5304.43C7739.13,5296.26 7723.92,5286.61 7713.46,5275.49C7702.99,5264.37 7696.45,5252.92 7693.84,5241.15C7691.22,5229.38 7689.91,5219.89 7689.91,5212.69L7689.91,4455.24C7689.91,4436.27 7685.5,4419.75 7676.66,4405.69C7667.84,4391.63 7652.95,4384.59 7632.02,4384.59C7620.9,4384.59 7611.42,4386.56 7603.57,4390.48C7595.72,4394.41 7587.22,4399.97 7578.06,4407.16L7557.45,4382.63C7572.5,4370.2 7589.34,4357.94 7607.98,4345.84C7626.63,4333.74 7646.74,4323.11 7668.32,4313.95C7689.91,4304.79 7713.13,4297.27 7737.99,4291.38C7762.84,4285.5 7789.01,4282.55 7816.48,4282.55C7859,4282.55 7892.03,4289.59 7915.58,4303.65C7939.13,4317.71 7956.46,4334.56 7967.58,4354.18C7978.7,4373.8 7985.4,4394.24 7987.69,4415.5C7989.98,4436.76 7991.13,4454.58 7991.13,4468.97C8015.33,4434.31 8042.8,4403.24 8073.55,4375.76C8085.97,4363.99 8099.87,4352.54 8115.24,4341.42C8130.62,4330.3 8146.97,4320.33 8164.3,4311.5C8181.64,4302.67 8199.95,4295.64 8219.25,4290.4C8238.54,4285.17 8258.33,4282.55 8278.61,4282.55C8323.09,4282.55 8362.5,4291.06 8396.84,4308.06C8431.18,4325.07 8460.12,4353.52 8483.67,4393.43C8507.22,4433.32 8525.21,4486.15 8537.64,4551.88C8550.06,4617.62 8556.28,4699.22 8556.28,4796.68C8556.28,4891.53 8547.77,4973.95 8530.77,5043.94C8513.76,5113.93 8491.52,5173.45 8464.05,5222.51C8436.58,5271.57 8405.51,5311.63 8370.84,5342.7C8336.17,5373.77 8301.17,5398.14 8265.85,5415.8C8230.53,5433.46 8196.68,5445.72 8164.3,5452.59C8131.93,5459.46 8103.96,5463.22 8080.41,5463.87L8069.62,5423.65C8089.24,5419.07 8107.4,5411.87 8124.07,5402.06C8140.76,5392.25 8155.96,5377.86 8169.7,5358.89C8183.44,5339.92 8195.54,5315.88 8206,5286.77C8216.47,5257.66 8225.46,5221.2 8232.98,5177.37C8240.51,5133.55 8246.07,5081.71 8249.66,5021.86C8253.26,4962.01 8255.06,4892.18 8255.06,4812.38Z" style="fill:rgb(28,173,0);fill-rule:nonzero;stroke:rgb(255,255,175);stroke-width:20.81px;stroke-linecap:butt;stroke-miterlimit:2;"/>
            <path d="M9200.9,4792.76C9200.9,4776.4 9195.67,4763.98 9185.2,4755.47C9174.74,4746.97 9161.33,4742.72 9144.98,4742.72C9122.08,4742.72 9100.33,4747.95 9079.73,4758.42C9059.12,4768.88 9040.97,4784.25 9025.27,4804.53C9009.57,4824.81 8997.15,4849.83 8987.99,4879.59C8978.83,4909.35 8974.25,4943.86 8974.25,4983.1C8974.25,5021.04 8977.03,5052.44 8982.59,5077.3C8988.15,5102.15 8995.68,5121.94 9005.16,5136.65C9014.64,5151.37 9025.6,5161.68 9038.03,5167.56C9050.46,5173.45 9063.54,5176.39 9077.27,5176.39C9094.28,5176.39 9110.31,5171.98 9125.35,5163.15C9140.4,5154.32 9153.48,5143.03 9164.6,5129.3C9175.72,5115.56 9184.55,5100.19 9191.09,5083.18C9197.63,5066.18 9200.9,5049.17 9200.9,5032.16L9200.9,4792.76ZM9044.9,4363.01C9022.66,4363.01 9002.05,4365.62 8983.08,4370.86C8964.11,4376.09 8947.76,4382.63 8934.02,4390.48C8920.29,4398.33 8909.5,4407 8901.65,4416.48C8893.8,4425.97 8889.87,4434.96 8889.87,4443.46C8889.87,4453.28 8894.94,4460.31 8905.08,4464.56C8915.22,4468.81 8926.5,4473.72 8938.93,4479.28C8951.36,4484.84 8962.64,4492.69 8972.78,4502.82C8982.92,4512.96 8987.99,4528.5 8987.99,4549.43C8987.99,4563.17 8985.21,4575.76 8979.65,4587.2C8974.09,4598.65 8966.57,4608.79 8957.08,4617.62C8947.6,4626.45 8936.48,4633.32 8923.72,4638.23C8910.97,4643.13 8897.72,4645.58 8883.99,4645.58C8847.36,4645.58 8817.76,4633.15 8795.19,4608.3C8772.62,4583.44 8761.34,4550.41 8761.34,4509.2C8761.34,4469.3 8771.81,4435.12 8792.74,4406.67C8813.67,4378.22 8840.98,4354.83 8874.67,4336.52C8908.35,4318.2 8946.45,4304.63 8988.97,4295.8C9031.49,4286.97 9074,4282.55 9116.52,4282.55C9167.54,4282.55 9216.27,4288.11 9262.71,4299.23C9309.16,4310.35 9350.2,4328.01 9385.85,4352.22C9421.5,4376.42 9449.95,4407.16 9471.21,4444.44C9492.47,4481.73 9503.1,4526.86 9503.1,4579.85L9503.1,5134.2C9503.1,5140.09 9503.43,5146.63 9504.08,5153.83C9504.73,5161.02 9506.37,5167.56 9508.99,5173.45C9511.6,5179.34 9515.53,5184.24 9520.76,5188.17C9525.99,5192.09 9533.51,5194.05 9543.33,5194.05C9555.1,5194.05 9566.06,5189.64 9576.2,5180.81C9586.33,5171.98 9595.33,5162.98 9603.18,5153.83L9627.71,5174.43C9617.9,5188.17 9606.12,5203.21 9592.39,5219.56C9578.65,5235.92 9561.97,5251.29 9542.35,5265.68C9522.72,5280.07 9499.83,5292.17 9473.66,5301.98C9447.5,5311.79 9417.74,5316.7 9384.38,5316.7C9343.17,5316.7 9306.54,5304.43 9274.49,5279.9C9242.44,5255.38 9221.51,5217.6 9211.69,5166.58C9190.76,5194.71 9169.01,5218.26 9146.45,5237.22C9123.88,5256.19 9100.82,5271.57 9077.27,5283.34C9053.73,5295.11 9030.01,5303.62 9006.14,5308.85C8982.26,5314.08 8958.23,5316.7 8934.02,5316.7C8902.63,5316.7 8872.21,5311.79 8842.78,5301.98C8813.34,5292.17 8787.01,5276.63 8763.79,5255.38C8740.57,5234.12 8721.93,5206.48 8707.87,5172.47C8693.8,5138.45 8686.77,5096.92 8686.77,5047.86C8686.77,4988.34 8698.55,4939.61 8722.09,4901.67C8745.64,4863.73 8776.55,4831.84 8814.81,4806C8853.08,4780.17 8896.58,4758.09 8945.31,4739.78C8994.04,4721.46 9043.92,4702.16 9094.94,4681.89C9132.87,4666.84 9160.51,4644.44 9177.84,4614.68C9195.18,4584.91 9203.84,4554.34 9203.84,4522.94C9203.84,4474.53 9189.62,4435.78 9161.16,4406.67C9132.71,4377.56 9093.95,4363.01 9044.9,4363.01Z" style="fill:rgb(28,173,0);fill-rule:nonzero;stroke:rgb(255,255,175);stroke-width:20.81px;stroke-linecap:butt;stroke-miterlimit:2;"/>
        </g>
        <g transform="matrix(0.591142,0,0,0.54874,4715.94,2039.27)">
            <path d="M10348.5,6121.73C10348.5,6135.27 10345.3,6148.67 10339,6161.9C10332.7,6175.14 10323.9,6186.35 10312.5,6195.54C10300,6205.51 10285.5,6213.29 10268.9,6218.9C10252.3,6224.5 10232.4,6227.31 10209,6227.31C10183.9,6227.31 10161.4,6224.97 10141.4,6220.3C10121.4,6215.63 10101,6208.7 10080.3,6199.51L10080.3,6141.58L10083.6,6141.58C10101.2,6156.22 10121.5,6167.51 10144.5,6175.45C10167.6,6183.39 10189.2,6187.36 10209.5,6187.36C10238.1,6187.36 10260.4,6181.99 10276.4,6171.25C10292.4,6160.5 10300.3,6146.18 10300.3,6128.27C10300.3,6112.85 10296.6,6101.48 10289,6094.16C10281.5,6086.85 10270,6081.16 10254.6,6077.11C10242.9,6074 10230.2,6071.43 10216.6,6069.4C10203,6067.38 10188.5,6064.81 10173.3,6061.69C10142.4,6055.15 10119.6,6043.98 10104.7,6028.18C10089.8,6012.37 10082.4,5991.78 10082.4,5966.39C10082.4,5937.27 10094.7,5913.41 10119.3,5894.8C10143.9,5876.19 10175.1,5866.89 10213,5866.89C10237.4,5866.89 10259.8,5869.22 10280.2,5873.89C10300.6,5878.57 10318.7,5884.33 10334.4,5891.18L10334.4,5945.84L10331.2,5945.84C10317.9,5934.62 10300.5,5925.32 10279,5917.92C10257.4,5910.53 10235.3,5906.83 10212.7,5906.83C10188,5906.83 10168.1,5911.97 10153.1,5922.24C10138,5932.52 10130.5,5945.76 10130.5,5961.95C10130.5,5976.44 10134.3,5987.81 10141.7,5996.06C10149.2,6004.31 10162.4,6010.62 10181.2,6014.98C10191.2,6017.16 10205.3,6019.81 10223.7,6022.92C10242.1,6026.03 10257.7,6029.23 10270.4,6032.5C10296.3,6039.35 10315.8,6049.7 10328.8,6063.56C10341.9,6077.42 10348.5,6096.81 10348.5,6121.73Z" style="fill-rule:nonzero;stroke:black;stroke-width:21.92px;stroke-linecap:butt;stroke-miterlimit:2;"/>
            <path d="M10742.7,5960.09L10674.8,6221L10634.1,6221L10567.1,6019.88L10500.5,6221L10460.1,6221L10391.4,5960.09L10437.2,5960.09L10485.1,6162.14L10550.3,5960.09L10586.5,5960.09L10653.3,6162.14L10698.6,5960.09L10742.7,5960.09Z" style="fill-rule:nonzero;stroke:black;stroke-width:21.92px;stroke-linecap:butt;stroke-miterlimit:2;"/>
            <path d="M11024.4,6095.1L10832.2,6095.1C10832.2,6111.14 10834.6,6125.11 10839.5,6137.03C10844.3,6148.94 10850.9,6158.71 10859.3,6166.34C10867.4,6173.82 10877,6179.42 10888.2,6183.16C10899.3,6186.9 10911.6,6188.77 10924.9,6188.77C10942.7,6188.77 10960.6,6185.22 10978.6,6178.14C10996.5,6171.05 11009.3,6164.08 11017,6157.23L11019.3,6157.23L11019.3,6205.12C11004.5,6211.35 10989.4,6216.56 10974,6220.77C10958.6,6224.97 10942.4,6227.07 10925.4,6227.07C10882.1,6227.07 10848.3,6215.36 10824,6191.92C10799.7,6168.48 10787.6,6135.2 10787.6,6092.06C10787.6,6049.39 10799.2,6015.52 10822.5,5990.45C10845.8,5965.38 10876.4,5952.85 10914.4,5952.85C10949.6,5952.85 10976.8,5963.12 10995.8,5983.68C11014.9,6004.23 11024.4,6033.43 11024.4,6071.27L11024.4,6095.1ZM10981.7,6061.46C10981.5,6038.41 10975.7,6020.58 10964.3,6007.97C10952.9,5995.36 10935.5,5989.05 10912.1,5989.05C10888.6,5989.05 10869.9,5995.98 10855.9,6009.84C10842,6023.7 10834.1,6040.91 10832.2,6061.46L10981.7,6061.46Z" style="fill-rule:nonzero;stroke:black;stroke-width:21.92px;stroke-linecap:butt;stroke-miterlimit:2;"/>
            <path d="M11302.6,6221L11258.7,6221L11258.7,6193.67C11246.1,6204.57 11233,6213.06 11219.3,6219.13C11205.6,6225.2 11190.7,6228.24 11174.6,6228.24C11143.5,6228.24 11118.8,6216.25 11100.5,6192.27C11082.2,6168.29 11073,6135.04 11073,6092.53C11073,6070.42 11076.2,6050.72 11082.5,6033.43C11088.8,6016.15 11097.3,6001.43 11108.1,5989.28C11118.7,5977.45 11131,5968.42 11145.1,5962.19C11159.2,5955.96 11173.8,5952.85 11188.9,5952.85C11202.6,5952.85 11214.7,5954.28 11225.3,5957.17C11235.9,5960.05 11247.1,5964.52 11258.7,5970.6L11258.7,5857.54L11302.6,5857.54L11302.6,6221ZM11258.7,6156.76L11258.7,6007.04C11246.9,6001.74 11236.3,5998.08 11227,5996.06C11217.6,5994.03 11207.4,5993.02 11196.4,5993.02C11171.8,5993.02 11152.6,6001.59 11138.9,6018.72C11125.2,6035.85 11118.4,6060.14 11118.4,6091.59C11118.4,6122.58 11123.6,6146.14 11134.2,6162.25C11144.8,6178.37 11161.8,6186.43 11185.2,6186.43C11197.6,6186.43 11210.2,6183.66 11223,6178.14C11235.8,6172.61 11247.7,6165.49 11258.7,6156.76Z" style="fill-rule:nonzero;stroke:black;stroke-width:21.92px;stroke-linecap:butt;stroke-miterlimit:2;"/>
            <path d="M11607.5,6095.1L11415.2,6095.1C11415.2,6111.14 11417.6,6125.11 11422.5,6137.03C11427.3,6148.94 11433.9,6158.71 11442.3,6166.34C11450.4,6173.82 11460,6179.42 11471.2,6183.16C11482.3,6186.9 11494.6,6188.77 11508,6188.77C11525.7,6188.77 11543.6,6185.22 11561.6,6178.14C11579.6,6171.05 11592.4,6164.08 11600,6157.23L11602.3,6157.23L11602.3,6205.12C11587.5,6211.35 11572.4,6216.56 11557,6220.77C11541.6,6224.97 11525.4,6227.07 11508.4,6227.07C11465.1,6227.07 11431.4,6215.36 11407.1,6191.92C11382.8,6168.48 11370.6,6135.2 11370.6,6092.06C11370.6,6049.39 11382.3,6015.52 11405.5,5990.45C11428.8,5965.38 11459.5,5952.85 11497.5,5952.85C11532.7,5952.85 11559.8,5963.12 11578.9,5983.68C11597.9,6004.23 11607.5,6033.43 11607.5,6071.27L11607.5,6095.1ZM11564.7,6061.46C11564.6,6038.41 11558.8,6020.58 11547.3,6007.97C11535.9,5995.36 11518.5,5989.05 11495.1,5989.05C11471.6,5989.05 11452.9,5995.98 11438.9,6009.84C11425,6023.7 11417.1,6040.91 11415.2,6061.46L11564.7,6061.46Z" style="fill-rule:nonzero;stroke:black;stroke-width:21.92px;stroke-linecap:butt;stroke-miterlimit:2;"/>
            <path d="M11892.2,6221L11848.3,6221L11848.3,6072.44C11848.3,6060.45 11847.6,6049.2 11846.2,6038.69C11844.8,6028.18 11842.2,6019.96 11838.5,6014.04C11834.6,6007.5 11829,6002.64 11821.7,5999.44C11814.4,5996.25 11804.9,5994.66 11793.2,5994.66C11781.2,5994.66 11768.6,5997.61 11755.6,6003.53C11742.5,6009.45 11730,6017 11718,6026.19L11718,6221L11674,6221L11674,5960.09L11718,5960.09L11718,5989.05C11731.7,5977.68 11745.8,5968.81 11760.5,5962.42C11775.1,5956.04 11790.1,5952.85 11805.6,5952.85C11833.7,5952.85 11855.2,5961.33 11870,5978.31C11884.8,5995.28 11892.2,6019.73 11892.2,6051.65L11892.2,6221Z" style="fill-rule:nonzero;stroke:black;stroke-width:21.92px;stroke-linecap:butt;stroke-miterlimit:2;"/>
        </g>
    </g>
</svg>
